 <svg
        version="1.1"
        id="Layer_1"
        xmlns="http://www.w3.org/2000/svg"
        xmlns:xlink="http://www.w3.org/1999/xlink"
        x="0px"
        y="0px"
        width="746.939px"
        height="180.605px"
        viewBox="0 0 746.939 180.605"
        style="enable-background: new 0 0 746.939 180.605;"
        xml:space="preserve"
      >
      <svg width="746.939" height="180.605" xmlns="http://www.w3.org/2000/svg">

        <g>
         <title>background</title>
         <rect fill="none" id="canvas_background" height="402" width="582" y="-1" x="-1"/>
        </g>
        <g>
         <title>Home</title>
         <g stroke="null" id="svg_1">
          <path stroke="null" d="m93.692516,9.020956c-4.664004,0.579144 -9.243729,1.079888 -13.827076,2.163081c-9.946935,2.350702 -19.233792,6.532327 -27.654152,12.028304c-8.577264,5.598302 -15.961186,12.973595 -21.728262,21.154136c-5.569678,7.90061 -9.744237,16.839718 -11.851779,26.141382c-2.244236,9.904783 -2.878804,20.456877 -1.172579,30.49828c1.485864,8.744604 4.380428,17.403314 8.846145,25.207762c17.071402,29.834786 52.151582,46.035286 87.469884,41.301828c11.739846,-1.573462 23.377964,-5.753594 33.250825,-11.944745c11.909063,-7.468344 21.731554,-17.457775 28.540072,-29.357084c19.376013,-33.862427 8.99978,-77.91159 -23.272615,-101.17826c-8.376903,-6.03922 -17.864253,-10.509116 -27.983368,-13.255365c-7.559789,-2.051669 -15.205833,-2.891389 -23.045126,-2.891389c-2.502042,0 -5.088035,-0.176383 -7.57197,0.13207z" fill="#ffd05b" id="svg_2"/>
          <path stroke="null" d="m125.955693,38.764752c1.637521,0.649551 3.831417,0.311207 5.596674,0.311207c-1.637521,-0.649551 -3.831417,-0.311207 -5.596674,-0.311207z" fill="#f8934d" id="svg_4"/>
          <path stroke="null" d="m123.65118,39.075959c0.495799,0.212585 0.762135,0.257026 1.316864,0.311207c-0.495799,-0.212585 -0.762135,-0.257026 -1.316864,-0.311207z" fill="#f47246" id="svg_5"/>
          <path stroke="null" d="m108.178024,76.731998c2.917513,-0.925218 5.865972,-3.381886 8.888834,-3.782098c1.005755,-0.133197 2.006243,0.372826 2.962945,0.595961c1.835709,0.42791 3.71257,0.784553 5.596674,0.954783c7.909417,0.714531 16.868045,-1.156445 22.703071,-6.510449c4.642276,-4.259801 6.704486,-11.340381 3.995037,-17.088373c-1.666821,-3.535622 -4.795691,-6.308165 -8.262007,-8.26161c-11.183471,-6.302034 -29.841463,-4.875835 -37.350224,6.083162c-3.201626,4.672772 -3.314548,10.724813 -0.398351,15.560347c1.031434,1.710393 3.8008,3.396512 4.190921,5.290518c0.171192,0.830923 -0.367405,1.735601 -0.664358,2.489655c-0.607074,1.542964 -1.269128,3.061965 -1.662541,4.668104z" fill="#f1543f" id="svg_6"/>
          <path stroke="null" d="m132.540015,39.075959c0.582383,0.24243 0.9995,0.283945 1.64608,0.311207c-0.582383,-0.242399 -0.9995,-0.283945 -1.64608,-0.311207z" fill="#f9974e" id="svg_7"/>
          <path stroke="null" d="m121.895471,39.490891c-0.146501,0.138331 0.201151,0.121028 0.219258,0.103756c0.146501,-0.138331 -0.201151,-0.120997 -0.219258,-0.103756z" fill="#f99d50" id="svg_8"/>
          <path stroke="null" d="m135.064114,39.490891c-0.146501,0.1383 0.201151,0.121028 0.219258,0.103756c0.146501,-0.1383 -0.201151,-0.121028 -0.219258,-0.103756z" fill="#f88f4c" id="svg_9"/>
          <path stroke="null" d="m136.710195,39.802098c-0.146501,0.1383 0.201151,0.121028 0.219258,0.103756c0.146501,-0.138331 -0.201151,-0.121028 -0.219258,-0.103756z" fill="#faa651" id="svg_10"/>
          <path stroke="null" d="m119.590958,40.113212c-0.146501,0.138487 0.201151,0.121059 0.219258,0.103943c0.146501,-0.138487 -0.201151,-0.121059 -0.219258,-0.103943z" fill="#f7864a" id="svg_11"/>
          <path stroke="null" d="m113.445481,51.835443l0.329216,0.311207l-0.329216,-0.311207z" fill="#f5887a" id="svg_12"/>
          <path stroke="null" d="m113.774697,51.835443c0.410862,0.213177 0.509627,0.233094 0.987648,0.311207c-0.410862,-0.213177 -0.509627,-0.233094 -0.987648,-0.311207z" fill="#fcd7d2" id="svg_13"/>
          <path stroke="null" d="m114.762346,51.972374c-1.281967,0.195127 -2.551754,0.529363 -3.437674,1.485702c-2.180069,2.353036 -1.306659,6.51854 1.791923,7.710774c2.398339,0.922417 6.001609,0.314008 8.559289,0.314008l15.473156,0c2.240316,0 5.089681,0.438179 7.242425,-0.203218c4.620877,-1.376468 3.645739,-8.090135 -0.658103,-9.119297c-3.696109,-0.883828 -8.060198,-0.3249 -11.851779,-0.3249c-5.533135,0 -11.655896,-0.694925 -17.119237,0.136931z" fill="#ffffff" id="svg_14"/>
          <path stroke="null" d="m142.745713,51.835443c0.410862,0.213177 0.509627,0.233094 0.987648,0.311207c-0.410862,-0.213177 -0.509627,-0.233094 -0.987648,-0.311207z" fill="#fcdbd6" id="svg_15"/>
          <path stroke="null" d="m143.733362,51.835443l0.329216,0.311207l-0.329216,-0.311207z" fill="#f69386" id="svg_16"/>
          <path stroke="null" d="m112.787049,52.14665l0.329216,0.311207l-0.329216,-0.311207z" fill="#f9bbb3" id="svg_17"/>
          <path stroke="null" d="m144.391794,52.14665l0.329216,0.311207l-0.329216,-0.311207z" fill="#fbccc6" id="svg_18"/>
          <path stroke="null" d="m112.128617,52.457857l0.329216,0.311207l-0.329216,-0.311207z" fill="#f8a89e" id="svg_19"/>
          <path stroke="null" d="m145.050226,52.457857l0.329216,0.311207l-0.329216,-0.311207z" fill="#fabfb7" id="svg_20"/>
          <path stroke="null" d="m153.061041,53.287846c-0.018107,0.017116 -0.036543,0.345751 0.109958,0.207264c0.018107,-0.017116 0.036543,-0.345751 -0.109958,-0.207264z" fill="#f57b48" id="svg_21"/>
          <path stroke="null" d="m104.33706,53.91026c-0.018107,0.017116 -0.036543,0.345751 0.109958,0.207264c0.018107,-0.017116 0.036543,-0.345751 -0.109958,-0.207264z" fill="#f8954e" id="svg_22"/>
          <path stroke="null" d="m110.811752,53.702685l0.329216,0.311207l-0.329216,-0.311207z" fill="#fac2ba" id="svg_23"/>
          <path stroke="null" d="m116.737642,53.702685l0,1.556035c-0.817773,-0.393366 -1.081146,-0.462765 -1.975297,-0.311207l0.987648,1.556035l-1.64608,0l0,0.933621l1.64608,0c-0.345018,0.5776 -0.498104,0.916193 -0.658432,1.556035c0.676868,-0.151558 1.035055,-0.296269 1.64608,-0.622414l0,1.556035l1.316864,0l0,-1.556035c0.611025,0.326145 0.969212,0.470856 1.64608,0.622414c-0.160657,-0.639841 -0.313414,-0.978435 -0.658432,-1.556035l1.64608,0l0,-0.933621l-1.64608,0l0.987648,-1.556035c-0.894151,-0.151558 -1.157524,-0.082159 -1.975297,0.311207l0,-1.556035l-1.316864,0m7.901186,0l0,1.556035c-0.713082,-0.371892 -1.169705,-0.526251 -1.975297,-0.622414l0.987648,1.867242l-1.64608,0l0,0.933621l1.64608,0c-0.443783,0.550214 -0.698597,0.92833 -0.987648,1.556035c0.805592,-0.096163 1.262214,-0.250522 1.975297,-0.622414l0,1.556035l0.987648,0l0,-1.556035l1.64608,0.933621c0.160328,-0.845238 0.086913,-1.094204 -0.329216,-1.867242l1.64608,0l0,-0.933621l-1.64608,0l0.987648,-1.244828c-0.15539,-0.440669 -0.267982,-0.564529 -0.658432,-0.933621l-1.64608,0.933621l0,-1.556035l-0.987648,0z" fill="#324a5e" id="svg_24"/>
          <path stroke="null" d="m125.626477,53.702685l0,1.556035c0.273249,-0.63175 0.273249,-0.924285 0,-1.556035z" fill="#85939f" id="svg_25"/>
          <path stroke="null" d="m132.540015,53.702685l0,1.556035l-1.64608,-0.933621c-0.044115,0.903745 0.200493,1.370555 0.658432,2.178449l-1.64608,0l0,0.933621l1.64608,0c-0.549791,0.740984 -0.704852,0.983414 -0.658432,1.867242l1.64608,-0.933621l0,1.556035l0.987648,0l0,-1.556035l1.64608,0.933621c0.046419,-0.883828 -0.108641,-1.126258 -0.658432,-1.867242l1.64608,0l0,-0.933621l-1.64608,0c0.573494,-0.809138 0.822053,-1.214952 0.658432,-2.178449l-1.64608,0.933621l0,-1.556035l-0.987648,0z" fill="#324a5e" id="svg_26"/>
          <path stroke="null" d="m133.527663,53.702685l0,1.556035c0.273249,-0.63175 0.273249,-0.924285 0,-1.556035z" fill="#85939f" id="svg_27"/>
          <path stroke="null" d="m140.111985,53.702685l-0.329216,1.556035c0.618597,-0.505089 0.630778,-0.840259 0.329216,-1.556035z" fill="#abb5bd" id="svg_28"/>
          <path stroke="null" d="m140.441201,53.702685l0,1.556035l-1.64608,-0.933621c-0.044115,0.903745 0.200493,1.370555 0.658432,2.178449l-1.64608,0l0,0.933621l1.64608,0c-0.549791,0.740984 -0.704852,0.983414 -0.658432,1.867242l1.64608,-0.933621l0,1.556035l0.987648,0l0,-1.556035l1.64608,0.933621c0.046419,-0.883828 -0.108641,-1.126258 -0.658432,-1.867242l1.64608,0l0,-0.933621l-1.64608,0c0.573494,-0.809138 0.822053,-1.214952 0.658432,-2.178449l-0.658432,0c-0.363125,0.453429 -0.50798,0.59036 -0.987648,0.933621l0,-1.556035l-0.987648,0z" fill="#324a5e" id="svg_29"/>
          <path stroke="null" d="m141.428849,53.702685l0,1.556035c0.273249,-0.63175 0.273249,-0.924285 0,-1.556035z" fill="#d8dde1" id="svg_30"/>
          <path stroke="null" d="m146.696307,54.013892l0.329216,0.311207l-0.329216,-0.311207z" fill="#f79f93" id="svg_31"/>
          <path stroke="null" d="m115.311149,54.428731c-0.146501,0.138487 0.201151,0.121059 0.219258,0.103943c0.146501,-0.138487 -0.201151,-0.121059 -0.219258,-0.103943z" fill="#566a7a" id="svg_32"/>
          <path stroke="null" d="m119.261742,54.428731c-0.146501,0.138487 0.201151,0.121059 0.219258,0.103943c0.146501,-0.138487 -0.201151,-0.121059 -0.219258,-0.103943z" fill="#657786" id="svg_33"/>
          <path stroke="null" d="m123.212335,54.428731c-0.146501,0.138487 0.201151,0.121059 0.219258,0.103943c0.146501,-0.138487 -0.201151,-0.121059 -0.219258,-0.103943z" fill="#566a7a" id="svg_34"/>
          <path stroke="null" d="m126.614125,54.325099l0.329216,0.311207l-0.329216,-0.311207z" fill="#bbc3ca" id="svg_35"/>
          <path stroke="null" d="m127.272557,54.325099l0.329216,0.311207l-0.329216,-0.311207z" fill="#98a4ae" id="svg_36"/>
          <path stroke="null" d="m131.22315,54.325099l0.329216,0.311207l-0.329216,-0.311207z" fill="#8795a1" id="svg_37"/>
          <path stroke="null" d="m134.515311,54.325099l0.329216,0.311207l-0.329216,-0.311207z" fill="#bbc3ca" id="svg_38"/>
          <path stroke="null" d="m135.173743,54.325099l0.329216,0.311207l-0.329216,-0.311207z" fill="#b3bcc3" id="svg_39"/>
          <path stroke="null" d="m139.124336,54.325099l0.329216,0.311207l-0.329216,-0.311207z" fill="#98a4ae" id="svg_40"/>
          <path stroke="null" d="m153.280628,54.325099l0,1.556035c0.273249,-0.632061 0.273249,-0.924285 0,-1.556035z" fill="#f57747" id="svg_41"/>
          <path stroke="null" d="m114.762346,54.636306l0.329216,0.311207l-0.329216,-0.311207m4.938241,0l0.329216,0.311207l-0.329216,-0.311207z" fill="#7e8d9a" id="svg_42"/>
          <path stroke="null" d="m126.284909,54.636306l0.329216,0.311207l-0.329216,-0.311207z" fill="#bbc3ca" id="svg_43"/>
          <path stroke="null" d="m127.601773,54.636306l0.329216,0.311207l-0.329216,-0.311207z" fill="#98a4ae" id="svg_44"/>
          <path stroke="null" d="m131.552366,54.636306l0.329216,0.311207l-0.329216,-0.311207z" fill="#768694" id="svg_45"/>
          <path stroke="null" d="m134.186095,54.636306l0.329216,0.311207l-0.329216,-0.311207z" fill="#bbc3ca" id="svg_46"/>
          <path stroke="null" d="m135.502959,54.636306l0.329216,0.311207l-0.329216,-0.311207z" fill="#ccd2d7" id="svg_47"/>
          <path stroke="null" d="m139.453552,54.636306l0.329216,0.311207l-0.329216,-0.311207z" fill="#98a4ae" id="svg_48"/>
          <path stroke="null" d="m142.087281,54.636306l0.329216,0.311207l-0.329216,-0.311207z" fill="#71818f" id="svg_49"/>
          <path stroke="null" d="m147.025523,54.636306l0.329216,0.311207l-0.329216,-0.311207z" fill="#f7a398" id="svg_50"/>
          <path stroke="null" d="m110.15332,54.947513l0.329216,0.311207l-0.329216,-0.311207z" fill="#f9b9b1" id="svg_51"/>
          <path stroke="null" d="m122.334316,54.947513l0.329216,0.311207l-0.329216,-0.311207z" fill="#8e9ba6" id="svg_52"/>
          <path stroke="null" d="m125.955693,54.947513l0.329216,0.311207l-0.329216,-0.311207z" fill="#bbc3ca" id="svg_53"/>
          <path stroke="null" d="m130.235502,54.947513l0.329216,0.311207l-0.329216,-0.311207z" fill="#8b99a4" id="svg_54"/>
          <path stroke="null" d="m131.881582,54.947513l0.329216,0.311207l-0.329216,-0.311207z" fill="#677988" id="svg_55"/>
          <path stroke="null" d="m133.856879,54.947513l0.329216,0.311207l-0.329216,-0.311207z" fill="#bbc3ca" id="svg_56"/>
          <path stroke="null" d="m135.502959,54.947513l0.329216,0.311207l-0.329216,-0.311207z" fill="#657786" id="svg_57"/>
          <path stroke="null" d="m138.136688,54.947513l0.329216,0.311207l-0.329216,-0.311207z" fill="#8b99a4" id="svg_58"/>
          <path stroke="null" d="m141.758065,54.947513l0.329216,0.311207l-0.329216,-0.311207z" fill="#71818f" id="svg_59"/>
          <path stroke="null" d="m143.404146,54.947513l0.329216,0.311207l-0.329216,-0.311207z" fill="#677988" id="svg_60"/>
          <path stroke="null" d="m103.898215,55.258719l0,3.112069c0.443125,-0.998041 0.443125,-2.114029 0,-3.112069z" fill="#fbab53" id="svg_61"/>
          <path stroke="null" d="m114.762346,55.258719l0.329216,0.311207l-0.329216,-0.311207m4.938241,0l0.329216,0.311207l-0.329216,-0.311207z" fill="#bbc3ca" id="svg_62"/>
          <path stroke="null" d="m122.663532,55.258719l0.329216,0.311207l-0.329216,-0.311207z" fill="#71818f" id="svg_63"/>
          <path stroke="null" d="m127.601773,55.258719l0.329216,0.311207l-0.329216,-0.311207z" fill="#bbc3ca" id="svg_64"/>
          <path stroke="null" d="m130.564718,55.258719l0.329216,0.311207l-0.329216,-0.311207m7.901186,0l0.329216,0.311207l-0.329216,-0.311207z" fill="#71818f" id="svg_65"/>
          <path stroke="null" d="m109.933733,55.777501c-0.018107,0.017116 -0.036543,0.345751 0.109958,0.207264c0.018107,-0.017116 0.036543,-0.345751 -0.109958,-0.207264z" fill="#f47c6b" id="svg_66"/>
          <path stroke="null" d="m115.091562,55.569926l0.329216,0.311207l-0.329216,-0.311207m4.279809,0l0.329216,0.311207l-0.329216,-0.311207z" fill="#bbc3ca" id="svg_67"/>
          <path stroke="null" d="m122.992748,55.569926l0.329216,0.311207l-0.329216,-0.311207z" fill="#71818f" id="svg_68"/>
          <path stroke="null" d="m127.272557,55.569926l0.329216,0.311207l-0.329216,-0.311207z" fill="#bbc3ca" id="svg_69"/>
          <path stroke="null" d="m130.893934,55.569926l0.329216,0.311207l-0.329216,-0.311207m7.901186,0l0.329216,0.311207l-0.329216,-0.311207z" fill="#71818f" id="svg_70"/>
          <path stroke="null" d="m147.354739,55.569926l0,2.489655c0.38222,-0.862043 0.38222,-1.627612 0,-2.489655z" fill="#f8a79c" id="svg_71"/>
          <path stroke="null" d="m115.420778,55.881133l0.329216,0.311207l-0.329216,-0.311207m3.621377,0l0.329216,0.311207l-0.329216,-0.311207z" fill="#bbc3ca" id="svg_72"/>
          <path stroke="null" d="m123.321964,55.881133l-1.316864,0.311207c0.511273,0.276974 1.672418,0.50291 1.316864,-0.311207z" fill="#85939f" id="svg_73"/>
          <path stroke="null" d="m126.943341,55.881133l0.329216,0.311207l-0.329216,-0.311207z" fill="#bbc3ca" id="svg_74"/>
          <path stroke="null" d="m131.22315,55.881133l-1.316864,0.311207c0.511273,0.276974 1.672418,0.50291 1.316864,-0.311207m3.292161,0l1.64608,1.556035c0.250204,-1.056236 -0.705181,-1.268479 -1.64608,-1.556035m4.609025,0c-0.592918,0.174898 -1.027813,0.256435 -1.64608,0.311207c0.522466,0.284443 2.035872,0.581023 1.64608,-0.311207m3.292161,0l1.64608,1.556035c0.250204,-1.056236 -0.705181,-1.268479 -1.64608,-1.556035z" fill="#85939f" id="svg_75"/>
          <path stroke="null" d="m109.824104,56.19234l0,0.933621c0.229134,-0.483616 0.229134,-0.450005 0,-0.933621z" fill="#f7998d" id="svg_76"/>
          <path stroke="null" d="m114.103913,56.19234c0.582383,0.24243 0.9995,0.283821 1.64608,0.311207c-0.582383,-0.24243 -0.9995,-0.283821 -1.64608,-0.311207m4.938241,0c0.582383,0.24243 0.9995,0.283821 1.64608,0.311207c-0.582383,-0.24243 -0.9995,-0.283821 -1.64608,-0.311207z" fill="#85939f" id="svg_77"/>
          <path stroke="null" d="m121.675884,56.19234l0,1.244828c0.233743,-0.547724 0.233743,-0.697415 0,-1.244828z" fill="#abb5bd" id="svg_78"/>
          <path stroke="null" d="m126.943341,56.19234c0.582383,0.24243 0.9995,0.283821 1.64608,0.311207c-0.582383,-0.24243 -0.9995,-0.283821 -1.64608,-0.311207z" fill="#85939f" id="svg_79"/>
          <path stroke="null" d="m129.57707,56.19234l0,1.244828c0.233743,-0.547724 0.233743,-0.697415 0,-1.244828z" fill="#abb5bd" id="svg_80"/>
          <path stroke="null" d="m136.161392,56.19234l0.329216,0.311207l-0.329216,-0.311207m7.901186,0l0.329216,0.311207l-0.329216,-0.311207z" fill="#b7bfc6" id="svg_81"/>
          <path stroke="null" d="m137.478256,56.503547l0,0.933621c0.229134,-0.483616 0.229134,-0.450005 0,-0.933621z" fill="#586b7c" id="svg_82"/>
          <path stroke="null" d="m109.933733,57.333536c-0.018107,0.017116 -0.036543,0.345751 0.109958,0.207264c0.018107,-0.017116 0.036543,-0.345751 -0.109958,-0.207264z" fill="#f47564" id="svg_83"/>
          <path stroke="null" d="m123.321964,57.437168l0.329216,0.311207l-0.329216,-0.311207m7.901186,0l0.329216,0.311207l-0.329216,-0.311207z" fill="#bbc3ca" id="svg_84"/>
          <path stroke="null" d="m134.515311,57.437168l0.329216,0.311207l-0.329216,-0.311207z" fill="#98a4ae" id="svg_85"/>
          <path stroke="null" d="m139.124336,57.437168l0.329216,0.311207l-0.329216,-0.311207z" fill="#bbc3ca" id="svg_86"/>
          <path stroke="null" d="m142.416497,57.437168l0.329216,0.311207l-0.329216,-0.311207z" fill="#98a4ae" id="svg_87"/>
          <path stroke="null" d="m153.280628,57.437168l0,1.244828c0.233743,-0.547724 0.233743,-0.697415 0,-1.244828z" fill="#f47045" id="svg_88"/>
          <path stroke="null" d="m122.992748,57.748375l0.329216,0.311207l-0.329216,-0.311207m7.901186,0l0.329216,0.311207l-0.329216,-0.311207z" fill="#bbc3ca" id="svg_89"/>
          <path stroke="null" d="m134.844527,57.748375l0.329216,0.311207l-0.329216,-0.311207z" fill="#98a4ae" id="svg_90"/>
          <path stroke="null" d="m138.79512,57.748375l0.329216,0.311207l-0.329216,-0.311207z" fill="#bbc3ca" id="svg_91"/>
          <path stroke="null" d="m142.745713,57.748375l0.329216,0.311207l-0.329216,-0.311207z" fill="#98a4ae" id="svg_92"/>
          <path stroke="null" d="m122.663532,58.059582l0.329216,0.311207l-0.329216,-0.311207m7.901186,0l0.329216,0.311207l-0.329216,-0.311207z" fill="#bbc3ca" id="svg_93"/>
          <path stroke="null" d="m135.173743,58.059582l0.329216,0.311207l-0.329216,-0.311207z" fill="#98a4ae" id="svg_94"/>
          <path stroke="null" d="m138.465904,58.059582l0.329216,0.311207l-0.329216,-0.311207z" fill="#bbc3ca" id="svg_95"/>
          <path stroke="null" d="m143.074929,58.059582l0.329216,0.311207l-0.329216,-0.311207z" fill="#98a4ae" id="svg_96"/>
          <path stroke="null" d="m110.15332,58.370789l0.329216,0.311207l-0.329216,-0.311207z" fill="#f8a499" id="svg_97"/>
          <path stroke="null" d="m114.871975,58.578364c-0.018107,0.017116 -0.036543,0.345751 0.109958,0.207264c0.018107,-0.017116 0.036543,-0.345751 -0.109958,-0.207264m4.938241,0c-0.018107,0.017116 -0.036543,0.345751 0.109958,0.207264c0.018107,-0.017116 0.036543,-0.345751 -0.109958,-0.207264z" fill="#566a7a" id="svg_98"/>
          <path stroke="null" d="m122.443945,58.578364c-0.018107,0.017116 -0.036543,0.345751 0.109958,0.207264c0.018107,-0.017116 0.036543,-0.345751 -0.109958,-0.207264z" fill="#c5ccd2" id="svg_99"/>
          <path stroke="null" d="m125.626477,58.370789l0,1.556035c0.273249,-0.63175 0.273249,-0.924285 0,-1.556035z" fill="#85939f" id="svg_100"/>
          <path stroke="null" d="m125.955693,58.370789l0.329216,0.311207l-0.329216,-0.311207z" fill="#bbc3ca" id="svg_101"/>
          <path stroke="null" d="m127.711402,58.578364c-0.018107,0.017116 -0.036543,0.345751 0.109958,0.207264c0.018107,-0.017116 0.036543,-0.345751 -0.109958,-0.207264z" fill="#657786" id="svg_102"/>
          <path stroke="null" d="m130.345131,58.578364c-0.018107,0.017116 -0.036543,0.345751 0.109958,0.207264c0.018107,-0.017116 0.036543,-0.345751 -0.109958,-0.207264z" fill="#bbc3ca" id="svg_103"/>
          <path stroke="null" d="m131.881582,58.370789l0.329216,0.311207l-0.329216,-0.311207z" fill="#677988" id="svg_104"/>
          <path stroke="null" d="m133.527663,58.370789l0,1.556035c0.273249,-0.63175 0.273249,-0.924285 0,-1.556035z" fill="#85939f" id="svg_105"/>
          <path stroke="null" d="m133.856879,58.370789l0.329216,0.311207l-0.329216,-0.311207z" fill="#bbc3ca" id="svg_106"/>
          <path stroke="null" d="m135.612588,58.578364c-0.018107,0.017116 -0.036543,0.345751 0.109958,0.207264c0.018107,-0.017116 0.036543,-0.345751 -0.109958,-0.207264z" fill="#98a4ae" id="svg_107"/>
          <path stroke="null" d="m138.246317,58.578364c-0.018107,0.017116 -0.036543,0.345751 0.109958,0.207264c0.018107,-0.017116 0.036543,-0.345751 -0.109958,-0.207264z" fill="#bbc3ca" id="svg_108"/>
          <path stroke="null" d="m139.782769,58.370789l0.329216,1.556035c0.301562,-0.715776 0.289381,-1.050946 -0.329216,-1.556035z" fill="#abb5bd" id="svg_109"/>
          <path stroke="null" d="m141.428849,58.370789l0,1.556035c0.273249,-0.63175 0.273249,-0.924285 0,-1.556035z" fill="#d8dde1" id="svg_110"/>
          <path stroke="null" d="m141.758065,58.370789l0.329216,0.311207l-0.329216,-0.311207z" fill="#71818f" id="svg_111"/>
          <path stroke="null" d="m143.513775,58.578364c-0.018107,0.017116 -0.036543,0.345751 0.109958,0.207264c0.018107,-0.017116 0.036543,-0.345751 -0.109958,-0.207264z" fill="#a7b2ba" id="svg_112"/>
          <path stroke="null" d="m126.284909,58.681996l0.329216,0.311207l-0.329216,-0.311207z" fill="#bbc3ca" id="svg_113"/>
          <path stroke="null" d="m131.552366,58.681996l0.329216,0.311207l-0.329216,-0.311207z" fill="#768694" id="svg_114"/>
          <path stroke="null" d="m134.186095,58.681996l0.329216,0.311207l-0.329216,-0.311207z" fill="#bbc3ca" id="svg_115"/>
          <path stroke="null" d="m139.453552,58.681996l0.329216,0.311207l-0.329216,-0.311207z" fill="#98a4ae" id="svg_116"/>
          <path stroke="null" d="m142.087281,58.681996l0.329216,0.311207l-0.329216,-0.311207z" fill="#71818f" id="svg_117"/>
          <path stroke="null" d="m147.025523,58.681996l0.329216,0.311207l-0.329216,-0.311207z" fill="#f8ada2" id="svg_118"/>
          <path stroke="null" d="m104.33706,59.200778c-0.018107,0.017116 -0.036543,0.345751 0.109958,0.207264c0.018107,-0.017116 0.036543,-0.345751 -0.109958,-0.207264z" fill="#f8924d" id="svg_119"/>
          <path stroke="null" d="m110.482536,58.993203l0.329216,0.311207l-0.329216,-0.311207z" fill="#f9b7ae" id="svg_120"/>
          <path stroke="null" d="m115.311149,59.096835c-0.146501,0.138487 0.201151,0.121059 0.219258,0.103943c0.146501,-0.138487 -0.201151,-0.121059 -0.219258,-0.103943m3.950593,0c-0.146501,0.138487 0.201151,0.121059 0.219258,0.103943c0.146501,-0.138487 -0.201151,-0.121059 -0.219258,-0.103943m3.950593,0c-0.146501,0.138487 0.201151,0.121059 0.219258,0.103943c0.146501,-0.138487 -0.201151,-0.121059 -0.219258,-0.103943z" fill="#566a7a" id="svg_121"/>
          <path stroke="null" d="m126.614125,58.993203l0.329216,0.311207l-0.329216,-0.311207z" fill="#bbc3ca" id="svg_122"/>
          <path stroke="null" d="m127.272557,58.993203l0.329216,0.311207l-0.329216,-0.311207z" fill="#7e8d9a" id="svg_123"/>
          <path stroke="null" d="m130.564718,58.993203l0.329216,0.311207l-0.329216,-0.311207z" fill="#bbc3ca" id="svg_124"/>
          <path stroke="null" d="m131.22315,58.993203l0.329216,0.311207l-0.329216,-0.311207z" fill="#8795a1" id="svg_125"/>
          <path stroke="null" d="m134.515311,58.993203l0.329216,0.311207l-0.329216,-0.311207z" fill="#bbc3ca" id="svg_126"/>
          <path stroke="null" d="m135.173743,58.993203l0.329216,0.311207l-0.329216,-0.311207z" fill="#98a4ae" id="svg_127"/>
          <path stroke="null" d="m138.465904,58.993203l0.329216,0.311207l-0.329216,-0.311207z" fill="#bbc3ca" id="svg_128"/>
          <path stroke="null" d="m139.124336,58.993203l0.329216,0.311207l-0.329216,-0.311207z" fill="#98a4ae" id="svg_129"/>
          <path stroke="null" d="m142.416497,58.993203l0.329216,0.311207l-0.329216,-0.311207z" fill="#71818f" id="svg_130"/>
          <path stroke="null" d="m143.074929,58.993203l0.329216,0.311207l-0.329216,-0.311207z" fill="#c3cad0" id="svg_131"/>
          <path stroke="null" d="m146.696307,59.30441l0.329216,0.311207l-0.329216,-0.311207z" fill="#f8ada2" id="svg_132"/>
          <path stroke="null" d="m110.811752,59.615617l0.329216,0.311207l-0.329216,-0.311207z" fill="#f68b7d" id="svg_133"/>
          <path stroke="null" d="m111.140969,59.926823l0.329216,0.311207l-0.329216,-0.311207z" fill="#f8a69c" id="svg_134"/>
          <path stroke="null" d="m153.061041,60.134398c-0.018107,0.017116 -0.036543,0.345751 0.109958,0.207264c0.018107,-0.017116 0.036543,-0.345751 -0.109958,-0.207264z" fill="#f8964e" id="svg_135"/>
          <path stroke="null" d="m111.470185,60.23803l0.329216,0.311207l-0.329216,-0.311207z" fill="#f8aca2" id="svg_136"/>
          <path stroke="null" d="m111.799401,60.549237l0.329216,0.311207l-0.329216,-0.311207z" fill="#f68e80" id="svg_137"/>
          <path stroke="null" d="m112.457833,60.860444l0.329216,0.311207l-0.329216,-0.311207z" fill="#fac3bc" id="svg_138"/>
          <path stroke="null" d="m145.050226,60.860444l0.329216,0.311207l-0.329216,-0.311207z" fill="#f79d91" id="svg_139"/>
          <path stroke="null" d="m113.116265,61.171651l0.329216,0.311207l-0.329216,-0.311207z" fill="#f9bab1" id="svg_140"/>
          <path stroke="null" d="m144.391794,61.171651l0.329216,0.311207l-0.329216,-0.311207z" fill="#f7a398" id="svg_141"/>
          <path stroke="null" d="m113.774697,61.482858c0.410862,0.213177 0.509627,0.233094 0.987648,0.311207c-0.410862,-0.213177 -0.509627,-0.233094 -0.987648,-0.311207z" fill="#f69184" id="svg_142"/>
          <path stroke="null" d="m114.762346,61.482858c2.436199,0.966298 6.252801,0.311207 8.888834,0.311207l19.423749,0c-2.436199,-0.966298 -6.252801,-0.311207 -8.888834,-0.311207l-19.423749,0z" fill="#f9bab1" id="svg_143"/>
          <path stroke="null" d="m143.294517,61.58649c-0.146501,0.138487 0.201151,0.121059 0.219258,0.103943c0.146501,-0.138487 -0.201151,-0.121059 -0.219258,-0.103943z" fill="#f58a7c" id="svg_144"/>
          <path stroke="null" d="m120.907822,73.72356c-0.146501,0.138487 0.201151,0.121059 0.219258,0.103943c0.146501,-0.138487 -0.201151,-0.121059 -0.219258,-0.103943z" fill="#f78a4b" id="svg_145"/>
          <path stroke="null" d="m136.710195,73.72356c-0.146501,0.138487 0.201151,0.121059 0.219258,0.103943c0.146501,-0.138487 -0.201151,-0.121059 -0.219258,-0.103943z" fill="#faa651" id="svg_146"/>
          <path stroke="null" d="m122.224687,74.034767c-0.146501,0.138487 0.201151,0.121059 0.219258,0.103943c0.146501,-0.138487 -0.201151,-0.121059 -0.219258,-0.103943z" fill="#f78b4b" id="svg_147"/>
          <path stroke="null" d="m135.064114,74.034767c-0.146501,0.138487 0.201151,0.121059 0.219258,0.103943c0.146501,-0.138487 -0.201151,-0.121059 -0.219258,-0.103943z" fill="#f88f4c" id="svg_148"/>
          <path stroke="null" d="m123.65118,74.242342c0.495799,0.212554 0.762135,0.257057 1.316864,0.311207c-0.495799,-0.212554 -0.762135,-0.257057 -1.316864,-0.311207z" fill="#f57947" id="svg_149"/>
          <path stroke="null" d="m132.540015,74.242342c0.582383,0.24243 0.9995,0.283821 1.64608,0.311207c-0.582383,-0.24243 -0.9995,-0.283821 -1.64608,-0.311207z" fill="#f9974e" id="svg_150"/>
          <path stroke="null" d="m125.626477,74.553549c1.719166,0.681854 4.071745,0.311207 5.92589,0.311207c-1.719166,-0.681854 -4.071745,-0.311207 -5.92589,-0.311207z" fill="#f99b4f" id="svg_151"/>
          <path stroke="null" d="m54.845017,78.59924c2.039164,0.808827 5.041615,0.311207 7.242754,0.311207l15.802372,0l54.979087,0c-2.039164,-0.808827 -5.041615,-0.311207 -7.242754,-0.311207l-15.802372,0l-54.979087,0z" fill="#d8b75c" id="svg_152"/>
          <path stroke="null" d="m53.418524,79.014078c-0.146501,0.138487 0.201151,0.121059 0.219258,0.103943c0.146501,-0.138487 -0.201151,-0.121059 -0.219258,-0.103943z" fill="#6d705d" id="svg_153"/>
          <path stroke="null" d="m53.857369,79.056091c-5.992062,1.070552 -5.596674,6.587628 -5.596674,11.057805l0,33.610349c0,4.028263 -1.237853,9.903849 2.365088,12.857826c2.079329,1.704792 4.614622,1.457693 7.182178,1.457693l13.827076,0l42.468876,0l13.49786,0c2.218916,0 4.741699,0.309962 6.913538,-0.164628c5.957824,-1.30209 4.938241,-7.591271 4.938241,-11.972442l0,-32.987935c0,-4.14621 1.239169,-9.735175 -2.638667,-12.636869c-2.041798,-1.527715 -4.782522,-1.367443 -7.237816,-1.367443l-14.156292,0l-41.152011,0l-13.168644,0c-2.353895,0 -4.922439,-0.269194 -7.242754,0.145645z" fill="#324a5e" id="svg_154"/>
          <path stroke="null" d="m133.527663,78.910446c0.410862,0.213177 0.509627,0.233094 0.987648,0.311207c-0.410862,-0.213177 -0.509627,-0.233094 -0.987648,-0.311207z" fill="#656b5d" id="svg_155"/>
          <path stroke="null" d="m52.211288,79.221653l0.329216,0.311207l-0.329216,-0.311207z" fill="#a1935c" id="svg_156"/>
          <path stroke="null" d="m135.173743,79.221653l0.329216,0.311207l-0.329216,-0.311207z" fill="#90875d" id="svg_157"/>
          <path stroke="null" d="m51.552856,79.53286l0.329216,0.311207l-0.329216,-0.311207z" fill="#b09d5c" id="svg_158"/>
          <path stroke="null" d="m135.832175,79.53286l0.329216,0.311207l-0.329216,-0.311207z" fill="#9a8e5c" id="svg_159"/>
          <path stroke="null" d="m136.490608,79.844067l0.329216,0.311207l-0.329216,-0.311207z" fill="#bca45c" id="svg_160"/>
          <path stroke="null" d="m50.565208,80.155274l0.329216,0.311207l-0.329216,-0.311207z" fill="#bda55c" id="svg_161"/>
          <path stroke="null" d="m136.819824,80.155274l0.329216,0.311207l-0.329216,-0.311207z" fill="#9b8f5c" id="svg_162"/>
          <path stroke="null" d="m50.235992,80.466481l0.329216,0.311207l-0.329216,-0.311207z" fill="#9c8f5c" id="svg_163"/>
          <path stroke="null" d="m137.14904,80.466481l0.329216,0.311207l-0.329216,-0.311207z" fill="#7b7a5d" id="svg_164"/>
          <path stroke="null" d="m49.906775,80.777688l0.329216,0.311207l-0.329216,-0.311207z" fill="#958b5d" id="svg_165"/>
          <path stroke="null" d="m137.478256,80.777688l0.329216,0.311207l-0.329216,-0.311207z" fill="#70725d" id="svg_166"/>
          <path stroke="null" d="m49.577559,81.088895l0.329216,0.311207l-0.329216,-0.311207z" fill="#b7a15c" id="svg_167"/>
          <path stroke="null" d="m137.807472,81.088895l0.329216,0.311207l-0.329216,-0.311207z" fill="#91885d" id="svg_168"/>
          <path stroke="null" d="m138.136688,81.400102l0.329216,0.311207l-0.329216,-0.311207z" fill="#b39f5c" id="svg_169"/>
          <path stroke="null" d="m48.919127,82.022516l0.329216,0.311207l-0.329216,-0.311207z" fill="#9f915c" id="svg_170"/>
          <path stroke="null" d="m138.465904,82.022516l0.329216,0.311207l-0.329216,-0.311207z" fill="#78785d" id="svg_171"/>
          <path stroke="null" d="m48.589911,82.64493l0.329216,0.311207l-0.329216,-0.311207z" fill="#8c855d" id="svg_172"/>
          <path stroke="null" d="m139.124336,83.267344l0.329216,0.311207l-0.329216,-0.311207z" fill="#a3945c" id="svg_173"/>
          <path stroke="null" d="m48.260695,83.57855l0.329216,0.311207l-0.329216,-0.311207z" fill="#89835d" id="svg_174"/>
          <path stroke="null" d="m139.453552,84.200964l0,0.933621c0.229134,-0.483616 0.229134,-0.450005 0,-0.933621z" fill="#baa35c" id="svg_175"/>
          <path stroke="null" d="m47.931479,84.512171l0,47.303454c0.546861,-1.232068 0.329216,-2.719949 0.329216,-4.04569l0,-8.09138l0,-24.585348l0,-6.846553c0,-1.239537 0.181727,-2.583329 -0.329216,-3.734483z" fill="#ab995c" id="svg_176"/>
          <path stroke="null" d="m139.453552,85.134585l0,46.68104c0.510943,-1.151154 0.329216,-2.494946 0.329216,-3.734483l0,-6.846553l0,-24.274141l0,-7.780173c0,-1.325742 0.217612,-2.813622 -0.329216,-4.04569z" fill="#85805d" id="svg_177"/>
          <path stroke="null" d="m56.491097,86.69062c0.410862,0.213177 0.509627,0.233094 0.987648,0.311207c-0.410862,-0.213177 -0.509627,-0.233094 -0.987648,-0.311207z" fill="#a8975c" id="svg_178"/>
          <path stroke="null" d="m57.478746,86.69062l0,6.224139l1.64608,0l0,2.800862l-3.621377,0l0,0.622414l3.621377,0l0,4.04569l0.987648,0l0,-7.468966l1.64608,0l0,-0.933621l-3.292161,0l0,-5.290518l-0.987648,0z" fill="#f9b54c" id="svg_179"/>
          <path stroke="null" d="m58.466394,86.69062c0.951435,0.377494 1.933815,0.310585 2.962945,0.311207c-0.951435,-0.377494 -1.933815,-0.310585 -2.962945,-0.311207z" fill="#ac9a5c" id="svg_180"/>
          <path stroke="null" d="m61.429339,86.69062l0,4.04569l1.975297,0l0,4.04569l3.950593,0l0,5.601725l0.658432,0l0,-6.224139l-3.950593,0l0,-3.423276l5.596674,0l0,-0.933621l-7.242754,0c-0.000658,-1.084867 -0.003292,-2.069526 -0.329216,-3.112069l-0.658432,0z" fill="#f9b54c" id="svg_181"/>
          <path stroke="null" d="m62.087771,86.69062c1.88147,0.746274 4.553388,0.311207 6.584322,0.311207c-1.88147,-0.746274 -4.553388,-0.311207 -6.584322,-0.311207z" fill="#ac9a5c" id="svg_182"/>
          <path stroke="null" d="m55.832665,87.001827l0.329216,0.311207l-0.329216,-0.311207z" fill="#978c5d" id="svg_183"/>
          <path stroke="null" d="m55.503449,95.715621l3.621377,0l0,-2.800862l-1.64608,0l0,-5.912932c-3.224013,0.486105 -1.975297,6.333372 -1.975297,8.713794m2.962945,-8.713794l0,4.979311l3.292161,0l0,0.933621l-1.64608,0l0,7.468966l7.242754,0l0,-5.601725l-3.950593,0l0,-4.04569l-1.975297,0l0,-3.734483l-2.962945,0m3.950593,0l0,2.800862l7.242754,0c-0.009547,-0.754677 0.092839,-1.717551 -0.527733,-2.301998c-1.240157,-1.167337 -5.074537,-0.498865 -6.715021,-0.498865z" fill="#ffd05b" id="svg_184"/>
          <path stroke="null" d="m69.001309,87.001827l0.329216,0.311207l-0.329216,-0.311207z" fill="#7a795d" id="svg_185"/>
          <path stroke="null" d="m55.503449,87.313034l0.329216,0.311207l-0.329216,-0.311207z" fill="#8c855d" id="svg_186"/>
          <path stroke="null" d="m55.174233,87.935448l0,7.780173c0.794398,-1.78944 0.794398,-5.990733 0,-7.780173z" fill="#86815d" id="svg_187"/>
          <path stroke="null" d="m69.659741,88.246654l0,10.892243c0.4744,-1.068996 0.329216,-2.271188 0.329216,-3.423276c0,-2.245669 0.593247,-5.390727 -0.329216,-7.468966z" fill="#59635d" id="svg_188"/>
          <path stroke="null" d="m64.063067,90.73631l0,3.423276l3.950593,0l0,6.224139c2.848378,-1.358107 1.64608,-7.020206 1.64608,-9.647415l-5.596674,0z" fill="#ffd05b" id="svg_189"/>
          <path stroke="null" d="m55.283862,95.923196c-0.018107,0.017116 -0.036543,0.345751 0.109958,0.207264c0.018107,-0.017116 0.036543,-0.345751 -0.109958,-0.207264z" fill="#b59656" id="svg_191"/>
          <path stroke="null" d="m55.174233,96.338035l0,2.800862c0.413495,-0.931754 0.413495,-1.869109 0,-2.800862z" fill="#86815d" id="svg_192"/>
          <path stroke="null" d="m55.503449,96.338035c0,2.891112 0.30255,4.019238 3.621377,4.04569l0,-4.04569l-3.621377,0z" fill="#ffd05b" id="svg_193"/>
          <path stroke="null" d="m69.330525,99.450104l0.329216,0.311207l-0.329216,-0.311207z" fill="#84805d" id="svg_194"/>
          <path stroke="null" d="m69.001309,99.761311l0.329216,0.311207l-0.329216,-0.311207z" fill="#ad9a5c" id="svg_195"/>
          <path stroke="null" d="m56.381468,100.17615c-0.146501,0.138487 0.201151,0.121059 0.219258,0.103943c0.146501,-0.138487 -0.201151,-0.121059 -0.219258,-0.103943z" fill="#dcb95c" id="svg_196"/>
          <path stroke="null" d="m68.672093,100.072518l0.329216,0.311207l-0.329216,-0.311207z" fill="#78785d" id="svg_197"/>
          <path stroke="null" d="m55.174233,105.98545l0,4.979311c0.59654,-1.344103 0.59654,-3.635208 0,-4.979311z" fill="#8694a0" id="svg_198"/>
          <path stroke="null" d="m55.503449,105.98545c2.356858,0.934866 6.010169,0.311207 8.559618,0.311207l19.094533,0c-2.356858,-0.934866 -6.010169,-0.311207 -8.559618,-0.311207l-19.094533,0z" fill="#acb6be" id="svg_199"/>
          <path stroke="null" d="m83.157601,105.98545l0,4.979311c0.59654,-1.344103 0.59654,-3.635208 0,-4.979311z" fill="#8694a0" id="svg_200"/>
          <path stroke="null" d="m55.503449,106.296657l0,4.356897l27.654152,0l0,-4.356897l-27.654152,0z" fill="#ffffff" id="svg_201"/>
          <path stroke="null" d="m55.503449,110.653554c2.356858,0.934866 6.010169,0.311207 8.559618,0.311207l19.094533,0c-2.356858,-0.934866 -6.010169,-0.311207 -8.559618,-0.311207l-19.094533,0z" fill="#acb6be" id="svg_202"/>
          <path stroke="null" d="m55.174233,116.566485l0,4.668104c0.572836,-1.290886 0.572836,-3.377218 0,-4.668104z" fill="#8694a0" id="svg_203"/>
          <path stroke="null" d="m55.503449,116.566485l0,4.356897l7.901186,0l0,-4.356897l-7.901186,0z" fill="#ffffff" id="svg_204"/>
          <path stroke="null" d="m63.404635,116.566485l0,4.356897l-7.901186,0c2.280809,0.904679 5.762269,0.311207 8.230402,0.311207c0,-1.499084 0.288393,-3.276698 -0.329216,-4.668104z" fill="#d9dee1" id="svg_205"/>
          <path stroke="null" d="m68.672093,116.566485l0,4.668104c0.572836,-1.290886 0.572836,-3.377218 0,-4.668104z" fill="#4690b2" id="svg_206"/>
          <path stroke="null" d="m69.001309,116.566485l0,4.356897l7.901186,0l0,-4.356897l-7.901186,0z" fill="#54c0eb" id="svg_207"/>
          <path stroke="null" d="m76.902495,116.566485l0,4.668104c0.572836,-1.290886 0.572836,-3.377218 0,-4.668104z" fill="#4690b2" id="svg_208"/>
          <path stroke="null" d="m82.169953,116.566485l0,4.668104l8.230402,0c-2.201468,-0.873247 -5.519966,-0.311207 -7.901186,-0.311207c0,-1.413191 0.253167,-3.044537 -0.329216,-4.356897z" fill="#2d8b7d" id="svg_209"/>
          <path stroke="null" d="m82.499169,116.566485l0,4.356897l7.901186,0l0,-4.356897l-7.901186,0z" fill="#2c9984" id="svg_210"/>
          <path stroke="null" d="m90.400355,116.566485l0,4.668104c0.572836,-1.290886 0.572836,-3.377218 0,-4.668104z" fill="#306a6e" id="svg_211"/>
          <path stroke="null" d="m95.667812,116.566485l0,4.668104c0.572836,-1.290886 0.572836,-3.377218 0,-4.668104z" fill="#a4504c" id="svg_212"/>
          <path stroke="null" d="m95.997028,116.566485l0,4.356897l7.901186,0l0,-4.356897l-7.901186,0z" fill="#f1543f" id="svg_213"/>
          <path stroke="null" d="m103.898215,116.566485l0,4.668104c0.572836,-1.290886 0.572836,-3.377218 0,-4.668104z" fill="#a4504c" id="svg_214"/>
          <path stroke="null" d="m111.799401,118.433727c0.495799,0.212554 0.762135,0.257057 1.316864,0.311207c-0.495799,-0.212554 -0.762135,-0.257057 -1.316864,-0.311207z" fill="#46baad" id="svg_215"/>
          <path stroke="null" d="m113.116265,118.598356c-9.118957,0.763702 -8.135917,14.001822 0.987648,13.367271c1.64213,-0.114213 4.64886,-0.736938 4.932315,-2.644325c0.188641,-1.267857 -0.960323,-2.685093 -0.955714,-4.041022c0.004609,-1.351883 1.181227,-2.761028 0.963945,-4.041022c-0.365759,-2.156042 -4.075037,-2.796194 -5.928194,-2.640902z" fill="#4cdbc4" id="svg_216"/>
          <path stroke="null" d="m114.103913,118.433727c0.495799,0.212554 0.762135,0.257057 1.316864,0.311207c-0.495799,-0.212554 -0.762135,-0.257057 -1.316864,-0.311207z" fill="#45b4a9" id="svg_217"/>
          <path stroke="null" d="m123.321964,118.433727l0.329216,0.311207l-0.329216,-0.311207z" fill="#617483" id="svg_218"/>
          <path stroke="null" d="m123.65118,118.433727c0.410862,0.213177 0.509627,0.233094 0.987648,0.311207c-0.410862,-0.213177 -0.509627,-0.233094 -0.987648,-0.311207z" fill="#b8c1c7" id="svg_219"/>
          <path stroke="null" d="m124.638828,118.582484c-1.154561,0.124172 -2.319327,0.438802 -3.291832,1.050635c-5.950252,3.744131 -2.698584,13.129821 4.608696,12.344957c1.152586,-0.12386 2.321961,-0.436623 3.290844,-1.050635c5.928194,-3.757201 2.669943,-13.126397 -4.607708,-12.344957z" fill="#ffffff" id="svg_220"/>
          <path stroke="null" d="m125.955693,118.433727c0.410862,0.213177 0.509956,0.233094 0.987648,0.311207c-0.410862,-0.213177 -0.509627,-0.233094 -0.987648,-0.311207z" fill="#b8c1c7" id="svg_221"/>
          <path stroke="null" d="m111.03134,118.848566c-0.146501,0.138487 0.201151,0.121059 0.219258,0.103943c0.146501,-0.138487 -0.201151,-0.121059 -0.219258,-0.103943z" fill="#43aba2" id="svg_222"/>
          <path stroke="null" d="m122.334316,118.744934l0.329216,0.311207l-0.329216,-0.311207z" fill="#6b7c8b" id="svg_223"/>
          <path stroke="null" d="m122.663532,118.744934l0.329216,0.311207l-0.329216,-0.311207m4.938241,0l0.329216,0.311207l-0.329216,-0.311207z" fill="#afb9c0" id="svg_224"/>
          <path stroke="null" d="m127.930989,118.744934l0.329216,0.311207l-0.329216,-0.311207z" fill="#6b7c8b" id="svg_225"/>
          <path stroke="null" d="m121.675884,119.056141l0.329216,0.311207l-0.329216,-0.311207m6.913538,0l0.329216,0.311207l-0.329216,-0.311207z" fill="#617483" id="svg_226"/>
          <path stroke="null" d="m117.396074,119.367348l0.329216,0.311207l-0.329216,-0.311207z" fill="#419e99" id="svg_227"/>
          <path stroke="null" d="m121.346667,119.367348l0.329216,0.311207l-0.329216,-0.311207m7.57197,0l0.329216,0.311207l-0.329216,-0.311207z" fill="#bfc7cd" id="svg_228"/>
          <path stroke="null" d="m109.165672,119.678555l0.329216,0.311207l-0.329216,-0.311207z" fill="#3d8789" id="svg_229"/>
          <path stroke="null" d="m120.688235,119.678555l0.329216,0.311207l-0.329216,-0.311207m8.888834,0l0.329216,0.311207l-0.329216,-0.311207z" fill="#6b7c8b" id="svg_230"/>
          <path stroke="null" d="m120.359019,119.989762l0.329216,0.311207l-0.329216,-0.311207m9.547267,0l0.329216,0.311207l-0.329216,-0.311207z" fill="#8c99a5" id="svg_231"/>
          <path stroke="null" d="m120.029803,120.300969l0.329216,0.311207l-0.329216,-0.311207m10.205699,0l0.329216,0.311207l-0.329216,-0.311207z" fill="#a8b2bb" id="svg_232"/>
          <path stroke="null" d="m119.700587,120.612176l0.329216,0.311207l-0.329216,-0.311207m10.864131,0l0.329216,0.311207l-0.329216,-0.311207z" fill="#8c99a5" id="svg_233"/>
          <path stroke="null" d="m69.001309,120.923383c2.201468,0.873247 5.519966,0.311207 7.901186,0.311207c-2.201468,-0.873247 -5.519966,-0.311207 -7.901186,-0.311207z" fill="#4eabd1" id="svg_234"/>
          <path stroke="null" d="m95.997028,120.923383c2.201468,0.873247 5.519966,0.311207 7.901186,0.311207c-2.201468,-0.873247 -5.519966,-0.311207 -7.901186,-0.311207z" fill="#ce5344" id="svg_235"/>
          <path stroke="null" d="m107.848808,120.923383l0.329216,0.311207l-0.329216,-0.311207z" fill="#3e8c8c" id="svg_236"/>
          <path stroke="null" d="m119.371371,120.923383l0.329216,0.311207l-0.329216,-0.311207z" fill="#6d8a94" id="svg_237"/>
          <path stroke="null" d="m130.893934,120.923383l0.329216,0.311207l-0.329216,-0.311207z" fill="#6b7c8b" id="svg_238"/>
          <path stroke="null" d="m131.22315,121.545796l0.329216,0.311207l-0.329216,-0.311207z" fill="#bfc7cd" id="svg_239"/>
          <path stroke="null" d="m107.190375,121.857003l0.329216,0.311207l-0.329216,-0.311207z" fill="#3d8789" id="svg_240"/>
          <path stroke="null" d="m131.552366,121.857003l0.329216,0.311207l-0.329216,-0.311207z" fill="#617483" id="svg_241"/>
          <path stroke="null" d="m131.881582,122.479417l0.329216,0.311207l-0.329216,-0.311207z" fill="#6b7c8b" id="svg_242"/>
          <path stroke="null" d="m131.881582,122.790624l0.329216,0.311207l-0.329216,-0.311207z" fill="#afb9c0" id="svg_243"/>
          <path stroke="null" d="m106.641572,123.620613c-0.018107,0.017116 -0.036543,0.345751 0.109958,0.207264c0.018107,-0.017116 0.036543,-0.345751 -0.109958,-0.207264z" fill="#44b1a6" id="svg_244"/>
          <path stroke="null" d="m132.210798,123.413038l0.329216,0.311207l-0.329216,-0.311207z" fill="#617483" id="svg_245"/>
          <path stroke="null" d="m118.054507,123.724245l0,0.933621c0.229134,-0.483616 0.229134,-0.450005 0,-0.933621z" fill="#c1f3eb" id="svg_246"/>
          <path stroke="null" d="m132.210798,123.724245l0,0.933621c0.229134,-0.483616 0.229134,-0.450005 0,-0.933621z" fill="#b8c1c7" id="svg_247"/>
          <path stroke="null" d="m118.054507,125.902694l0,0.933621c0.229134,-0.483616 0.229134,-0.450005 0,-0.933621z" fill="#c1f3eb" id="svg_248"/>
          <path stroke="null" d="m132.210798,125.902694l0,0.933621c0.229134,-0.483616 0.229134,-0.450005 0,-0.933621z" fill="#b8c1c7" id="svg_249"/>
          <path stroke="null" d="m106.531943,126.2139l0,0.933621c0.229134,-0.483616 0.229134,-0.450005 0,-0.933621z" fill="#44b1a6" id="svg_250"/>
          <path stroke="null" d="m118.493352,127.666303c-0.018107,0.017116 -0.036543,0.345751 0.109958,0.207264c0.018107,-0.017116 0.036543,-0.345751 -0.109958,-0.207264z" fill="#7ee5d4" id="svg_251"/>
          <path stroke="null" d="m131.881582,127.458728l0.329216,0.311207l-0.329216,-0.311207z" fill="#afb9c0" id="svg_252"/>
          <path stroke="null" d="m106.861159,127.769935l0.329216,0.311207l-0.329216,-0.311207z" fill="#3e8e8e" id="svg_253"/>
          <path stroke="null" d="m131.881582,127.769935l0.329216,0.311207l-0.329216,-0.311207z" fill="#6b7c8b" id="svg_254"/>
          <path stroke="null" d="m131.552366,128.392349l0.329216,0.311207l-0.329216,-0.311207z" fill="#617483" id="svg_255"/>
          <path stroke="null" d="m131.22315,128.703556l0.329216,0.311207l-0.329216,-0.311207z" fill="#bfc7cd" id="svg_256"/>
          <path stroke="null" d="m107.848808,129.32597l0.329216,0.311207l-0.329216,-0.311207z" fill="#3e8c8c" id="svg_257"/>
          <path stroke="null" d="m119.371371,129.32597l0.329216,0.311207l-0.329216,-0.311207z" fill="#6d8a94" id="svg_258"/>
          <path stroke="null" d="m130.893934,129.32597l0.329216,0.311207l-0.329216,-0.311207z" fill="#6b7c8b" id="svg_259"/>
          <path stroke="null" d="m119.700587,129.637177l0.329216,0.311207l-0.329216,-0.311207m10.864131,0l0.329216,0.311207l-0.329216,-0.311207z" fill="#8c99a5" id="svg_260"/>
          <path stroke="null" d="m120.029803,129.948384l0.329216,0.311207l-0.329216,-0.311207m10.205699,0l0.329216,0.311207l-0.329216,-0.311207z" fill="#a8b2bb" id="svg_261"/>
          <path stroke="null" d="m120.359019,130.259591l0.329216,0.311207l-0.329216,-0.311207m9.547267,0l0.329216,0.311207l-0.329216,-0.311207z" fill="#8c99a5" id="svg_262"/>
          <path stroke="null" d="m109.165672,130.570798l0.329216,0.311207l-0.329216,-0.311207z" fill="#3d8789" id="svg_263"/>
          <path stroke="null" d="m120.688235,130.570798l0.329216,0.311207l-0.329216,-0.311207m8.888834,0l0.329216,0.311207l-0.329216,-0.311207z" fill="#6b7c8b" id="svg_264"/>
          <path stroke="null" d="m117.396074,130.882004l0.329216,0.311207l-0.329216,-0.311207z" fill="#419e99" id="svg_265"/>
          <path stroke="null" d="m121.346667,130.882004l0.329216,0.311207l-0.329216,-0.311207m7.57197,0l0.329216,0.311207l-0.329216,-0.311207z" fill="#bfc7cd" id="svg_266"/>
          <path stroke="null" d="m121.675884,131.193211l0.329216,0.311207l-0.329216,-0.311207m6.913538,0l0.329216,0.311207l-0.329216,-0.311207z" fill="#617483" id="svg_267"/>
          <path stroke="null" d="m111.03134,131.60805c-0.146501,0.138487 0.201151,0.121059 0.219258,0.103943c0.146501,-0.138487 -0.201151,-0.121059 -0.219258,-0.103943z" fill="#43aba2" id="svg_268"/>
          <path stroke="null" d="m122.334316,131.504418l0.329216,0.311207l-0.329216,-0.311207z" fill="#6b7c8b" id="svg_269"/>
          <path stroke="null" d="m122.663532,131.504418l0.329216,0.311207l-0.329216,-0.311207m4.938241,0l0.329216,0.311207l-0.329216,-0.311207z" fill="#afb9c0" id="svg_270"/>
          <path stroke="null" d="m127.930989,131.504418l0.329216,0.311207l-0.329216,-0.311207z" fill="#6b7c8b" id="svg_271"/>
          <path stroke="null" d="m48.041207,132.0232c-0.018271,0.017116 -0.036543,0.345751 0.109761,0.207264c0.018271,-0.017116 0.036576,-0.345751 -0.109761,-0.207264z" fill="#d8b75c" id="svg_272"/>
          <path stroke="null" d="m111.799401,131.815625c0.495799,0.212554 0.762135,0.257057 1.316864,0.311207c-0.495799,-0.212554 -0.762135,-0.257057 -1.316864,-0.311207z" fill="#46baad" id="svg_273"/>
          <path stroke="null" d="m114.103913,131.815625c0.495799,0.212554 0.762135,0.257057 1.316864,0.311207c-0.495799,-0.212554 -0.762135,-0.257057 -1.316864,-0.311207z" fill="#45b4a9" id="svg_274"/>
          <path stroke="null" d="m123.321964,131.815625l0.329216,0.311207l-0.329216,-0.311207z" fill="#617483" id="svg_275"/>
          <path stroke="null" d="m123.65118,131.815625c0.410862,0.213177 0.509627,0.233094 0.987648,0.311207c-0.410862,-0.213177 -0.509627,-0.233094 -0.987648,-0.311207m2.304513,0c0.410862,0.213177 0.509627,0.233094 0.987648,0.311207c-0.410862,-0.213177 -0.509627,-0.233094 -0.987648,-0.311207z" fill="#b8c1c7" id="svg_276"/>
          <path stroke="null" d="m139.453552,131.815625l0,0.933621c0.229134,-0.483616 0.229134,-0.450005 0,-0.933621z" fill="#b09d5c" id="svg_277"/>
          <path stroke="null" d="m48.260695,133.060453l0.329216,0.311207l-0.329216,-0.311207z" fill="#6f725d" id="svg_278"/>
          <path stroke="null" d="m48.260695,133.37166l0.329216,0.311207l-0.329216,-0.311207z" fill="#b09d5c" id="svg_279"/>
          <path stroke="null" d="m139.124336,133.37166l0.329216,0.311207l-0.329216,-0.311207z" fill="#817d5d" id="svg_280"/>
          <path stroke="null" d="m138.79512,134.305281l0.329216,0.311207l-0.329216,-0.311207z" fill="#968b5d" id="svg_281"/>
          <path stroke="null" d="m48.919127,134.616488l0.329216,0.311207l-0.329216,-0.311207z" fill="#73755d" id="svg_282"/>
          <path stroke="null" d="m138.465904,134.927695l0.329216,0.311207l-0.329216,-0.311207z" fill="#aa985c" id="svg_283"/>
          <path stroke="null" d="m49.248343,135.238902l0.329216,0.311207l-0.329216,-0.311207z" fill="#968c5d" id="svg_284"/>
          <path stroke="null" d="m49.577559,135.550108l0.329216,0.311207l-0.329216,-0.311207z" fill="#73755d" id="svg_285"/>
          <path stroke="null" d="m137.478256,136.172522l0.329216,0.311207l-0.329216,-0.311207z" fill="#bda55c" id="svg_286"/>
          <path stroke="null" d="m50.565208,136.483729l0.329216,0.311207l-0.329216,-0.311207z" fill="#70725d" id="svg_287"/>
          <path stroke="null" d="m50.894424,136.794936l0.329216,0.311207l-0.329216,-0.311207z" fill="#938a5d" id="svg_288"/>
          <path stroke="null" d="m136.161392,137.106143l0.329216,0.311207l-0.329216,-0.311207z" fill="#a5955c" id="svg_289"/>
          <path stroke="null" d="m51.882072,137.41735l0.329216,0.311207l-0.329216,-0.311207z" fill="#c0a75c" id="svg_290"/>
          <path stroke="null" d="m135.502959,137.41735l0.329216,0.311207l-0.329216,-0.311207z" fill="#9b8e5c" id="svg_291"/>
          <path stroke="null" d="m52.86972,137.728557l0.329216,0.311207l-0.329216,-0.311207z" fill="#978c5d" id="svg_292"/>
          <path stroke="null" d="m134.515311,137.728557l0.329216,0.311207l-0.329216,-0.311207z" fill="#817d5d" id="svg_293"/>
          <path stroke="null" d="m53.857369,138.039764c0.410862,0.213177 0.509627,0.233094 0.987648,0.311207c-0.410862,-0.213177 -0.509627,-0.233094 -0.987648,-0.311207z" fill="#b6a05c" id="svg_294"/>
          <path stroke="null" d="m54.845017,138.039764c2.039164,0.808827 5.041615,0.311207 7.242754,0.311207l15.802372,0l54.979087,0c-2.039164,-0.808827 -5.041615,-0.311207 -7.242754,-0.311207l-15.802372,0l-54.979087,0z" fill="#85805d" id="svg_295"/>
          <path stroke="null" d="m132.869231,138.039764c0.410862,0.213177 0.509627,0.233094 0.987648,0.311207c-0.410862,-0.213177 -0.509627,-0.233094 -0.987648,-0.311207z" fill="#af9b5c" id="svg_296"/>
         </g>
         <g id="svg_298">
          <path id="svg_299" fill="white" d="m289.634,69.83c0,4.901 -0.524,10.076 -1.574,15.525c-1.051,5.452 -2.551,10.702 -4.5,15.75c-1.95,5.051 -4.351,9.577 -7.2,13.575c-2.851,4 -6.026,7 -9.525,9l0,0.449l19.2,-0.449l-2.55,15.15l-41.55,0c-10.2,0 -17.951,-3.174 -23.25,-9.525c-5.301,-6.35 -7.95,-15.474 -7.95,-27.375c0,-8.6 1.073,-17.176 3.225,-25.725c2.149,-8.55 5.25,-16.249 9.3,-23.1c4.05,-6.848 9.023,-12.398 14.925,-16.65c5.898,-4.249 12.548,-6.375 19.949,-6.375c5.199,0 9.773,0.975 13.726,2.925c3.949,1.95 7.249,4.676 9.899,8.175c2.648,3.501 4.625,7.702 5.926,12.6c1.297,4.9 1.949,10.251 1.949,16.05zm-18,2.549c0,-3.3 -0.201,-6.525 -0.6,-9.675c-0.4,-3.15 -1.125,-5.948 -2.175,-8.4c-1.05,-2.449 -2.526,-4.425 -4.425,-5.925c-1.901,-1.5 -4.351,-2.25 -7.351,-2.25c-4.5,0 -8.526,1.852 -12.075,5.55c-3.551,3.701 -6.551,8.325 -9,13.875c-2.451,5.55 -4.326,11.55 -5.625,18c-1.301,6.449 -1.949,12.476 -1.949,18.074c0,6.701 1.298,11.951 3.899,15.75c2.6,3.803 6.45,5.701 11.55,5.701c4.299,0 8.176,-1.65 11.625,-4.951c3.45,-3.299 6.375,-7.447 8.775,-12.449c2.4,-5 4.224,-10.475 5.475,-16.426c1.251,-5.946 1.876,-11.572 1.876,-16.874z"/>
          <path id="svg_300" fill="white" d="m352.633,119.93c-0.201,1 -0.428,2.377 -0.676,4.125c-0.25,1.75 -0.525,3.564 -0.825,5.441c-0.3,1.881 -0.576,3.684 -0.825,5.41c-0.25,1.727 -0.426,3.035 -0.524,3.924l-15.45,0c0.199,-1.5 0.424,-3.424 0.675,-5.775c0.249,-2.348 0.574,-4.625 0.976,-6.825l-0.301,0c-1.987,4.2 -4.718,7.776 -8.191,10.726c-3.473,2.947 -7.594,4.424 -12.358,4.424c-3.028,0 -5.602,-0.52 -7.72,-1.559c-2.119,-1.037 -3.812,-2.422 -5.072,-4.154s-2.196,-3.713 -2.801,-5.941c-0.604,-2.23 -0.907,-4.494 -0.907,-6.795c0,-1.599 0.101,-3.5 0.303,-5.7c0.201,-2.198 0.504,-4.351 0.907,-6.45l8.473,-48l16.268,0l-8.4,47.849c-0.501,2.502 -0.75,4.901 -0.75,7.201c0,2.602 0.523,4.799 1.568,6.6c1.045,1.8 3.012,2.699 5.899,2.699c1.892,0 3.708,-0.524 5.451,-1.574c1.741,-1.051 3.31,-2.475 4.704,-4.275c1.393,-1.8 2.588,-3.924 3.584,-6.375c0.996,-2.449 1.743,-5.123 2.24,-8.025l7.617,-44.099l16.335,0l-10.2,57.148z"/>
          <path id="svg_301" fill="white" d="m386.381,138.83l-16.199,0l13.35,-76.201l16.199,0l-13.35,76.201zm18.151,-99.9c0,3.202 -1,5.901 -3,8.1c-2.002,2.201 -4.5,3.3 -7.5,3.3c-2.801,0 -4.949,-0.874 -6.449,-2.625c-1.5,-1.749 -2.25,-3.773 -2.25,-6.075c0,-3 0.998,-5.674 3,-8.025c1.998,-2.348 4.549,-3.525 7.648,-3.525c2.701,0 4.801,0.825 6.301,2.475s2.25,3.776 2.25,6.375z"/>
          <path id="svg_302" fill="white" d="m451.331,78.379c-0.9,-1.099 -2.025,-1.973 -3.375,-2.625c-1.35,-0.649 -3.127,-0.975 -5.324,-0.975c-2.902,0 -5.502,1.176 -7.801,3.525c-2.301,2.351 -4.275,5.324 -5.926,8.925c-1.648,3.601 -2.9,7.526 -3.75,11.774c-0.85,4.252 -1.273,8.227 -1.273,11.926c0,4.8 0.799,8.576 2.398,11.324c1.6,2.752 4.5,4.125 8.701,4.125c1.898,0 3.549,-0.322 4.949,-0.975c1.4,-0.648 2.9,-1.574 4.5,-2.775l4.951,12.9c-2.201,1.801 -4.801,3.225 -7.801,4.275s-6.102,1.574 -9.301,1.574c-4.301,0 -7.975,-0.75 -11.023,-2.25c-3.053,-1.5 -5.576,-3.547 -7.576,-6.148c-2.002,-2.6 -3.475,-5.676 -4.424,-9.227c-0.953,-3.548 -1.426,-7.373 -1.426,-11.475c0,-6.199 0.799,-12.424 2.4,-18.675c1.598,-6.249 3.9,-11.851 6.9,-16.8c3,-4.95 6.697,-8.974 11.1,-12.075c4.398,-3.098 9.398,-4.65 15,-4.65c4.5,0 8.074,0.626 10.725,1.875c2.648,1.251 4.674,2.625 6.074,4.125l-8.698,12.302z"/>
          <path id="svg_303" fill="white" d="m495.581,98.629l18.6,40.201l-17.551,0l-16.049,-36.75l-0.301,0l-6.15,36.75l-15.898,0l19.648,-113.4l15.9,0l-12.15,69.3l0.301,0l25.5,-32.1l18.9,0l-30.75,35.999z"/>
          <path id="svg_304" fill="#63c763" d="m597.428,58.43c0,6 -0.824,11.301 -2.475,15.9c-1.65,4.601 -3.975,8.475 -6.975,11.625c-3,3.149 -6.6,5.549 -10.801,7.199c-4.199,1.65 -8.85,2.475 -13.949,2.475l-12.9,0l-7.65,43.201l-16.799,0l18.449,-106.201l27,0c3.5,0 6.826,0.502 9.975,1.5c3.15,1.001 5.926,2.55 8.326,4.65c2.4,2.1 4.299,4.776 5.699,8.025c1.401,3.251 2.1,7.126 2.1,11.626zm-16.5,2.4c0,-4.2 -1.025,-7.523 -3.074,-9.975c-2.051,-2.449 -5.176,-3.675 -9.375,-3.675l-9.9,0l-5.85,34.5l10.65,0c5.4,0 9.674,-1.85 12.824,-5.55c3.151,-3.699 4.725,-8.799 4.725,-15.3z"/>
          <path id="svg_305" fill="#63c763" d="m648.879,81.379c0,1.901 -0.127,3.803 -0.375,5.701c-0.25,1.9 -0.576,4 -0.975,6.299l-5.1,30c-0.502,2.801 -0.951,5.727 -1.35,8.775c-0.402,3.053 -0.602,5.275 -0.602,6.676l-13.648,0c0,-0.6 0.049,-1.4 0.148,-2.4c0.1,-0.998 0.227,-2.049 0.375,-3.15c0.15,-1.1 0.301,-2.174 0.451,-3.225s0.322,-1.973 0.525,-2.775l-0.301,0c-1.801,4.201 -4.252,7.451 -7.35,9.75c-3.102,2.299 -7.002,3.451 -11.701,3.451c-2.1,0 -4.125,-0.352 -6.074,-1.051s-3.676,-1.773 -5.176,-3.225c-1.5,-1.449 -2.699,-3.301 -3.6,-5.551s-1.35,-4.973 -1.35,-8.175c0,-5.899 1.051,-10.823 3.15,-14.774c2.1,-3.949 4.85,-7.125 8.25,-9.525c3.398,-2.4 7.223,-4.125 11.475,-5.176c4.25,-1.049 8.574,-1.574 12.975,-1.574l4.5,0c0.398,-2.199 0.65,-3.825 0.75,-4.875c0.1,-1.051 0.15,-1.924 0.15,-2.625c0,-6.799 -3.051,-10.2 -9.15,-10.2c-2.801,0 -5.5,0.701 -8.1,2.1c-2.602,1.401 -4.9,3.101 -6.9,5.1l-6.6,-10.2c3.098,-3.199 6.848,-5.775 11.25,-7.725c4.398,-1.95 8.699,-2.925 12.9,-2.925c7.5,0 12.949,1.875 16.35,5.625c3.402,3.75 5.103,8.976 5.103,15.674zm-22.199,21.301c-2.4,0 -4.752,0.3 -7.051,0.9c-2.301,0.6 -4.35,1.551 -6.15,2.85c-1.799,1.301 -3.25,3.025 -4.35,5.175c-1.102,2.151 -1.65,4.776 -1.65,7.875c0,3 0.699,5.175 2.102,6.524c1.398,1.35 3.098,2.025 5.1,2.025c2.299,0 4.35,-0.648 6.15,-1.949c1.799,-1.299 3.375,-2.975 4.725,-5.025c1.35,-2.049 2.475,-4.299 3.375,-6.75c0.9,-2.449 1.549,-4.875 1.949,-7.275l0.75,-4.35l-4.95,0z"/>
          <path id="svg_306" fill="#63c763" d="m684.428,149.779c-1.701,3.799 -3.4,7.225 -5.1,10.275c-1.703,3.049 -3.652,5.674 -5.852,7.875c-2.199,2.199 -4.648,3.9 -7.35,5.1c-2.699,1.201 -5.85,1.801 -9.449,1.801c-1.801,0 -3.398,-0.127 -4.801,-0.375c-1.398,-0.252 -2.648,-0.576 -3.75,-0.975l3,-14.4c1.002,0.6 2.65,0.9 4.951,0.9c2.797,0 4.998,-0.826 6.6,-2.477c1.598,-1.648 3.049,-3.975 4.35,-6.975l4.199,-9.75l-8.699,-78.15l16.801,0l3.6,58.05l0.299,0l22.801,-58.05l16.65,0l-38.25,87.151z"/>
         </g>
        </g>
       </svg>